<?xml version="1.0" encoding="UTF-8" standalone="no"?>
<svg
   version="1.1"
   width="64"
   height="64"
   viewBox="0 0 64 64"
   xml:space="preserve"
   id="svg124"
   sodipodi:docname="lliurex-permission-control.svg"
   inkscape:version="1.3 (1:1.3+202307231459+0e150ed6c4)"
   xmlns:inkscape="http://www.inkscape.org/namespaces/inkscape"
   xmlns:sodipodi="http://sodipodi.sourceforge.net/DTD/sodipodi-0.dtd"
   xmlns="http://www.w3.org/2000/svg"
   xmlns:svg="http://www.w3.org/2000/svg"><sodipodi:namedview
   id="namedview126"
   pagecolor="#ffffff"
   bordercolor="#666666"
   borderopacity="1.0"
   inkscape:pageshadow="2"
   inkscape:pageopacity="0.0"
   inkscape:pagecheckerboard="0"
   showgrid="false"
   inkscape:zoom="2"
   inkscape:cx="184.5"
   inkscape:cy="66.5"
   inkscape:window-width="1920"
   inkscape:window-height="882"
   inkscape:window-x="0"
   inkscape:window-y="0"
   inkscape:window-maximized="1"
   inkscape:current-layer="g1"
   inkscape:showpageshadow="2"
   inkscape:deskcolor="#d1d1d1" />&#10;<desc
   id="desc2">Created with Fabric.js 1.7.22</desc>&#10;<defs
   id="defs4">&#10;</defs>&#10;<g
   transform="matrix(0.72,0,0,0.72,128,128)"
   id="g122">&#10;	<g
   style="opacity:1;fill:none;fill-rule:nonzero;stroke:none;stroke-width:0;stroke-linecap:butt;stroke-linejoin:miter;stroke-miterlimit:10;stroke-dasharray:none"
   transform="matrix(3.89,0,0,3.89,-177.82778,-213.93892)"
   id="g120">&#10;	&#10;	&#10;	&#10;	&#10;	&#10;	&#10;	&#10;	&#10;	&#10;	&#10;	&#10;	&#10;	&#10;	&#10;	&#10;	&#10;	&#10;	&#10;	&#10;	&#10;	&#10;	&#10;	&#10;	&#10;	&#10;	&#10;	&#10;	&#10;	&#10;	&#10;	&#10;	&#10;	&#10;	&#10;	&#10;	&#10;	&#10;	&#10;	&#10;	&#10;	&#10;	&#10;	&#10;	&#10;	&#10;	&#10;	&#10;	&#10;	&#10;	&#10;	&#10;	&#10;	&#10;	&#10;	&#10;	&#10;	&#10;</g>&#10;<g
   id="g28129"
   transform="matrix(0.29807019,0,0,0.29807019,-115.66181,-260.14322)"><g
     id="g28352"
     transform="matrix(0.83085916,0,0,0.83085916,-53.762332,457.06774)"><text
       xml:space="preserve"
       style="font-size:14.2816px;line-height:1.25;font-family:SpaceColony-SemiBold;-inkscape-font-specification:SpaceColony-SemiBold;opacity:1;fill:none;fill-rule:nonzero;stroke:none;stroke-width:0;stroke-linecap:butt;stroke-linejoin:miter;stroke-miterlimit:10;stroke-dasharray:none"
       x="155.8407"
       y="-21.953897"
       id="text3890"
       transform="matrix(3.89,0,0,3.89,-177.82778,-213.93892)"><tspan
         sodipodi:role="line"
         id="tspan3888"
         style="stroke-width:0"
         x="155.8407"
         y="-21.953897">2</tspan></text><g
       id="g1"
       transform="matrix(0.12411667,0,0,0.12411667,-14.266682,-28.897425)"
       style="fill:#1d63ed;fill-opacity:0.866667"><path
         d="m -167.82904,540.80166 c 0,-152.54236 49.35193,-323.03088 130.109653,-457.627073 C 56.497951,-82.827389 164.17491,-150.12549 249.41917,-275.74861 c 139.08273,-206.38083 166.00197,-502.49246 76.27117,-726.81949 -89.73079,-228.8135 -300.598168,-363.4097 -547.35786,-358.9232 -246.7597,4.4866 -448.65399,157.0289 -524.92517,385.84247 -89.7308,251.24623 -49.35194,556.33095 152.54236,744.76562 85.24425,76.27118 161.51543,201.894299 116.65003,318.544337 -40.37886,112.163493 -174.97505,161.515433 -269.19239,206.380833 -219.84046,94.21734 -480.05981,228.81354 -524.92521,489.03285 -44.8654,210.86738 98.7039,430.70779 332.00399,430.70779 H 11.632552 c 44.865399,0 71.784638,-53.8384 44.865399,-89.7308 C -87.071326,962.53641 -167.82904,756.15557 -167.82904,540.80166 Z m 897.30798,-672.98099 c -367.89628,0 -672.980989,300.59817 -672.980989,672.98099 0,372.38281 300.598169,672.98094 672.980989,672.98094 372.38276,0 672.98096,-300.59813 672.98096,-672.98094 0,-372.38282 -300.5982,-672.98099 -672.98096,-672.98099 z m 116.65003,735.79255 c -17.94616,0 -40.37886,-4.48654 -53.83848,-8.97308 L 536.55772,850.37291 c -17.94616,17.94616 -40.37886,22.4327 -53.83848,22.4327 -22.4327,0 -40.37886,-4.48654 -53.83848,-22.4327 -26.91924,-26.91924 -26.91924,-76.27118 0,-112.1635 L 684.61354,482.47664 c -4.48654,-17.94616 -8.97308,-31.40578 -8.97308,-53.83848 -8.97308,-116.65004 85.24426,-224.327 201.89429,-224.327 17.94616,0 40.37886,4.48654 53.83848,8.97308 8.97308,0 8.97308,8.97308 4.48654,17.94616 L 819.20973,343.3939 c -8.97308,4.48654 -8.97308,22.4327 0,26.91924 l 76.27118,76.27118 c 8.97308,8.97308 22.4327,8.97308 31.40578,0 l 112.16351,-112.1635 c 4.4865,-4.48654 17.9461,-4.48654 17.9461,4.48654 4.4866,17.94616 8.9731,40.37886 8.9731,53.83848 4.4866,125.62312 -94.21731,219.84046 -219.84043,210.86738 z"
         id="path1-3"
         style="fill:#00084d;fill-opacity:0.83529413;stroke-width:44.8654" /></g></g></g></g>&#10;</svg>
